<svg xmlns="http://www.w3.org/2000/svg" width="375" height="194.48" viewBox="0 0 375 194.48">
  <g id="Group_5538" data-name="Group 5538" transform="translate(0 0.002)">
    <path id="Path_1701" data-name="Path 1701" d="M355,570.723l-9.237-14.66L355,572.32l0,1.67q.988-.012,1.957-.076l-.753-21.458.01-.166-.017-.032-.072-2.028,9.659-16.067-9.669,14.549-.029.429-.569-16.212,8.3-16.623-8.368,13.775-.389-33.6,0-.112v.11l-.19,26.494-7.934-10.6,7.941,12.883.037,14.511-7.362-14.015,7.366,16.148.02,8.069-10.694-19.513,10.7,22.328Z" transform="translate(-264.755 -379.548)" fill="#e2e2e2"/>
    <path id="Path_1702" data-name="Path 1702" d="M542.712,570.723l-9.238-14.66,9.242,16.257,0,1.67q.988-.012,1.957-.076l-.753-21.458.01-.166-.017-.032-.072-2.028,9.659-16.067-9.669,14.548-.029.43-.569-16.212,8.3-16.623-8.368,13.774-.389-33.6,0-.112v.11l-.19,26.494-7.934-10.6,7.941,12.883.037,14.511-7.362-14.015,7.366,16.148.02,8.069-10.694-19.514,10.7,22.328Z" transform="translate(-373.197 -379.548)" fill="#e2e2e2"/>
    <path id="Path_1703" data-name="Path 1703" d="M171.2,601.224l-6.67-10.586,6.673,11.739,0,1.206q.714-.008,1.413-.055l-.544-15.495.007-.12-.012-.023-.052-1.464,6.975-11.6-6.982,10.505-.021.31-.411-11.707,6-12-6.043,9.946-.281-24.265v0l-.137,19.131-5.729-7.655,5.734,9.3.027,10.478-5.316-10.12,5.319,11.661.015,5.827-7.722-14.091,7.728,16.123Z" transform="translate(-160.296 -409.106)" fill="#e2e2e2"/>
    <path id="Path_1704" data-name="Path 1704" d="M999.249,570.723l-9.237-14.66,9.242,16.257.005,1.67q.988-.012,1.957-.076l-.753-21.458.01-.166-.017-.032-.072-2.028,9.659-16.067-9.669,14.549-.029.429-.569-16.212,8.3-16.623-8.368,13.775-.389-33.6,0-.112v.11l-.189,26.494-7.934-10.6,7.941,12.883.037,14.511-7.362-14.015,7.366,16.148.02,8.069L988.5,530.452l10.7,22.328Z" transform="translate(-636.939 -379.548)" fill="#e2e2e2"/>
    <rect id="Rectangle_12885" data-name="Rectangle 12885" width="49.831" height="2.111" transform="translate(161.619 169.042) rotate(180)" fill="#0060c4"/>
    <rect id="Rectangle_12886" data-name="Rectangle 12886" width="49.831" height="2.111" transform="translate(159.085 166.931) rotate(180)" fill="#0060c4"/>
    <rect id="Rectangle_12887" data-name="Rectangle 12887" width="49.831" height="2.111" transform="translate(162.041 164.819) rotate(180)" fill="#0060c4"/>
    <rect id="Rectangle_12888" data-name="Rectangle 12888" width="49.831" height="2.111" transform="translate(167.109 162.708) rotate(180)" fill="#0060c4"/>
    <rect id="Rectangle_12889" data-name="Rectangle 12889" width="1.73" height="12.284" transform="translate(76.609 163.55) rotate(180)" fill="#3f3d56"/>
    <rect id="Rectangle_12890" data-name="Rectangle 12890" width="1.73" height="69.097" transform="translate(75.524 152.713) rotate(-112.092)" fill="#3f3d56"/>
    <rect id="Rectangle_12891" data-name="Rectangle 12891" width="15.052" height="5.882" transform="translate(57.923 181.889) rotate(180)" fill="#3f3d56"/>
    <rect id="Rectangle_12892" data-name="Rectangle 12892" width="74.223" height="6.575" transform="translate(118.478 187.772) rotate(180)" fill="#3f3d56"/>
    <path id="Path_1705" data-name="Path 1705" d="M133.68,406.211H151.5V383.806H138.178l-4.5,11.3Z" transform="translate(-77.227 -221.727)" fill="#e2e2e2"/>
    <rect id="Rectangle_12893" data-name="Rectangle 12893" width="7.613" height="7.613" transform="translate(71.505 171.076) rotate(180)" fill="#fff"/>
    <path id="Path_1706" data-name="Path 1706" d="M137.777,394.9h4.845v-7.612h-2.076Z" transform="translate(-79.594 -223.739)" fill="#fff"/>
    <rect id="Rectangle_12894" data-name="Rectangle 12894" width="1.73" height="3.287" transform="translate(71.159 178.689) rotate(180)" fill="#3f3d56"/>
    <path id="Path_1707" data-name="Path 1707" d="M0,0H.087A1.644,1.644,0,0,1,1.73,1.644h0A1.644,1.644,0,0,1,.087,3.287H0V0Z" transform="translate(61.557 171.682) rotate(180)" fill="#3f3d56"/>
    <path id="Path_1708" data-name="Path 1708" d="M0,0H.087A1.644,1.644,0,0,1,1.73,1.644h0A1.644,1.644,0,0,1,.087,3.287H0V0Z" transform="translate(125.918 184.484) rotate(180)" fill="#3f3d56"/>
    <path id="Path_1709" data-name="Path 1709" d="M259.564,636.629a8.56,8.56,0,0,0-6.654,3.312H249.53l3.287-9.157,15.312-3.02-.433,12.177h-1.478a8.56,8.56,0,0,0-6.654-3.312Z" transform="translate(-210.032 -455.457)" fill="#e2e2e2"/>
    <circle id="Ellipse_1658" data-name="Ellipse 1658" cx="7.526" cy="7.526" r="7.526" transform="translate(41.833 179.121)" fill="#3f3d56"/>
    <circle id="Ellipse_1659" data-name="Ellipse 1659" cx="3.961" cy="3.961" r="3.961" transform="translate(45.398 182.686)" fill="#e2e2e2"/>
    <circle id="Ellipse_1660" data-name="Ellipse 1660" cx="6.575" cy="6.575" r="6.575" transform="translate(110.779 180.938)" fill="#3f3d56"/>
    <circle id="Ellipse_1661" data-name="Ellipse 1661" cx="3.46" cy="3.46" r="3.46" transform="translate(113.894 184.052)" fill="#e2e2e2"/>
    <rect id="Rectangle_12895" data-name="Rectangle 12895" width="3.633" height="26.212" transform="translate(77.387 185.176) rotate(180)" fill="#3f3d56"/>
    <rect id="Rectangle_12896" data-name="Rectangle 12896" width="52.25" height="1.557" transform="translate(126.004 181.976) rotate(180)" fill="#3f3d56"/>
    <rect id="Rectangle_12897" data-name="Rectangle 12897" width="1.73" height="0.692" transform="translate(62.249 172.2) rotate(180)" fill="#3f3d56"/>
    <path id="Path_1710" data-name="Path 1710" d="M480.333,588.738a.173.173,0,0,1-.044-.134l2.386-22.564a.173.173,0,0,1,.171-.155h0a.173.173,0,0,1,.172.153l2.581,22.517a.173.173,0,0,1-.17.193l-4.967.047h0A.173.173,0,0,1,480.333,588.738Zm2.521-21.1-2.2,20.81,4.581-.043Z" transform="translate(-343.342 -419.709)" fill="#3f3d56"/>
    <path id="Path_1711" data-name="Path 1711" d="M0,0H.087A1.644,1.644,0,0,1,1.73,1.644h0A1.644,1.644,0,0,1,.087,3.287H0V0Z" transform="matrix(0.935, 0.354, -0.354, 0.935, 42.816, 175.462)" fill="#3f3d56"/>
    <rect id="Rectangle_12898" data-name="Rectangle 12898" width="1.73" height="25.26" transform="translate(140.451 150.401) rotate(180)" fill="#3f3d56"/>
    <circle id="Ellipse_1662" data-name="Ellipse 1662" cx="2.422" cy="2.422" r="2.422" transform="translate(73.321 149.19)" fill="#3f3d56"/>
    <rect id="Rectangle_12899" data-name="Rectangle 12899" width="49.831" height="2.111" transform="translate(129.102 180.444) rotate(180)" fill="#0060c4"/>
    <rect id="Rectangle_12900" data-name="Rectangle 12900" width="49.831" height="2.111" transform="translate(132.058 178.333) rotate(180)" fill="#0060c4"/>
    <rect id="Rectangle_12901" data-name="Rectangle 12901" width="49.831" height="2.111" transform="translate(129.947 176.644) rotate(180)" fill="#0060c4"/>
    <rect id="Rectangle_12902" data-name="Rectangle 12902" width="49.831" height="2.111" transform="translate(132.903 174.532) rotate(180)" fill="#0060c4"/>
    <path id="Path_1712" data-name="Path 1712" d="M529.488,340.093a6.586,6.586,0,0,1,4.323,1.611,6.59,6.59,0,0,1,2.908-.128,6.613,6.613,0,0,1,12.059,3.753H523.019A6.615,6.615,0,0,1,529.488,340.093Z" transform="translate(-368.028 -288.472)" fill="#e2e2e2"/>
    <path id="Path_1713" data-name="Path 1713" d="M438.206,389.544a6.226,6.226,0,0,1,4.087,1.523,6.23,6.23,0,0,1,2.75-.121,6.252,6.252,0,0,1,11.4,3.548H432.09A6.254,6.254,0,0,1,438.206,389.544Z" transform="translate(-315.498 -317.083)" fill="#e2e2e2"/>
    <path id="Path_1714" data-name="Path 1714" d="M346.119,308.08a6.478,6.478,0,0,1,4.252,1.584,6.482,6.482,0,0,1,2.861-.126,6.505,6.505,0,0,1,11.862,3.692H339.756A6.507,6.507,0,0,1,346.119,308.08Z" transform="translate(-262.156 -269.991)" fill="#e2e2e2"/>
    <path id="Path_1715" data-name="Path 1715" d="M751,377.981v52.747h20.513v-53.48l-4.762.17V366.626H763.3l-.569-23.9c1.394-.908,2.375-3.065,2.375-5.584a9.158,9.158,0,0,0-.251-2.147,4.392,4.392,0,0,0,.473-5.35,4.395,4.395,0,1,0,5.7-6.694,4.4,4.4,0,1,0-5.918-4.124c0,.064,0,.128,0,.192a11.159,11.159,0,0,1-10.433,3.739,4.4,4.4,0,0,0,1.639,7.878c0,.032,0,.064,0,.1a21.366,21.366,0,0,0,1.552,3.562,8.877,8.877,0,0,0-.453,2.848c0,2.519.981,4.675,2.374,5.584l-.569,23.9h-3.454v11.185Zm12.809-50.367h.011c.064,0,.126,0,.189,0q.059.195.136.382a4.436,4.436,0,0,0-.336-.378Z" transform="translate(-499.733 -274.441)" fill="#e2e2e2"/>
    <rect id="Rectangle_12903" data-name="Rectangle 12903" width="62.271" height="72.039" transform="translate(302.243 193.833) rotate(180)" fill="#3f3d56"/>
    <rect id="Rectangle_12904" data-name="Rectangle 12904" width="16.789" height="14.652" transform="translate(279.502 193.833) rotate(180)" fill="#e2e2e2"/>
    <path id="Path_1716" data-name="Path 1716" d="M667.171,246.744c0,.053,0,.106,0,.159a35.506,35.506,0,0,0,2.587,5.937,14.792,14.792,0,0,0-.756,4.747c0,5.563,2.87,10.073,6.41,10.073s6.41-4.51,6.41-10.073a15.237,15.237,0,0,0-.418-3.578,7.32,7.32,0,0,0,.788-8.916,7.325,7.325,0,1,0,9.493-11.157,7.327,7.327,0,1,0-9.864-6.874c0,.107,0,.214.008.32a7.331,7.331,0,0,0-9.388,5.9,7.326,7.326,0,1,0-5.268,13.462Zm12.511-5.03c.106,0,.211,0,.315-.008q.1.325.226.636a7.361,7.361,0,0,0-.56-.629Z" transform="translate(-447.952 -219.737)" fill="#e2e2e2"/>
    <path id="Path_1717" data-name="Path 1717" d="M685.941,381.611h7.327l-.262-10.988v0l-.959-40.291a4.685,4.685,0,0,1-4.886,0l-.959,40.291v0Z" transform="translate(-462.148 -283.626)" fill="#0060c4"/>
    <path id="Path_1718" data-name="Path 1718" d="M498.141,224.933v87.914h34.185V223.713l-7.935.283V206.01H506.076v18.64Z" transform="translate(-287.777 -119.014)" fill="#0060c4"/>
    <path id="Path_1719" data-name="Path 1719" d="M873.9,246.744c0,.053,0,.106,0,.159a35.51,35.51,0,0,0,2.588,5.937,14.8,14.8,0,0,0-.756,4.747c0,5.563,2.87,10.073,6.41,10.073s6.41-4.51,6.41-10.073a15.246,15.246,0,0,0-.418-3.578,7.32,7.32,0,0,0,.788-8.916,7.325,7.325,0,1,0,9.493-11.157,7.327,7.327,0,1,0-9.864-6.874c0,.107,0,.214.008.32a7.331,7.331,0,0,0-9.388,5.9,7.326,7.326,0,1,0-5.268,13.462Zm12.511-5.03c.106,0,.211,0,.315-.008q.1.325.226.636a7.294,7.294,0,0,0-.56-.628Z" transform="translate(-567.38 -219.737)" fill="#e2e2e2"/>
    <path id="Path_1720" data-name="Path 1720" d="M892.674,381.613H900l-1.221-51.282a7.222,7.222,0,0,1-4.884,0Z" transform="translate(-581.579 -283.629)" fill="#0060c4"/>
    <path id="Path_1721" data-name="Path 1721" d="M704.871,224.933v87.914H739.06V223.713l-2.808.1-5.131.182V206.01H712.806v18.64Z" transform="translate(-407.206 -119.014)" fill="#0060c4"/>
    <rect id="Rectangle_12905" data-name="Rectangle 12905" width="8.446" height="8.446" transform="translate(288.844 138.935) rotate(180)" fill="#fff"/>
    <rect id="Rectangle_12906" data-name="Rectangle 12906" width="8.446" height="8.446" transform="translate(275.331 138.935) rotate(180)" fill="#fff"/>
    <rect id="Rectangle_12907" data-name="Rectangle 12907" width="8.446" height="8.446" transform="translate(261.817 138.935) rotate(180)" fill="#fff"/>
    <rect id="Rectangle_12908" data-name="Rectangle 12908" width="8.446" height="8.446" transform="translate(288.844 152.448) rotate(180)" fill="#fff"/>
    <rect id="Rectangle_12909" data-name="Rectangle 12909" width="8.446" height="8.446" transform="translate(275.331 152.448) rotate(180)" fill="#fff"/>
    <rect id="Rectangle_12910" data-name="Rectangle 12910" width="8.446" height="8.446" transform="translate(261.817 152.448) rotate(180)" fill="#fff"/>
    <rect id="Rectangle_12911" data-name="Rectangle 12911" width="8.446" height="8.446" transform="translate(288.844 165.962) rotate(180)" fill="#fff"/>
    <rect id="Rectangle_12912" data-name="Rectangle 12912" width="8.446" height="8.446" transform="translate(275.331 165.962) rotate(180)" fill="#fff"/>
    <rect id="Rectangle_12913" data-name="Rectangle 12913" width="8.446" height="8.446" transform="translate(261.817 165.962) rotate(180)" fill="#fff"/>
    <rect id="Rectangle_12914" data-name="Rectangle 12914" width="8.446" height="8.446" transform="translate(231.68 135.556) rotate(180)" fill="#fff"/>
    <rect id="Rectangle_12915" data-name="Rectangle 12915" width="8.446" height="8.446" transform="translate(231.68 149.07) rotate(180)" fill="#fff"/>
    <rect id="Rectangle_12916" data-name="Rectangle 12916" width="8.446" height="8.446" transform="translate(231.68 162.583) rotate(180)" fill="#fff"/>
    <rect id="Rectangle_12917" data-name="Rectangle 12917" width="8.446" height="8.446" transform="translate(231.68 176.097) rotate(180)" fill="#fff"/>
    <rect id="Rectangle_12918" data-name="Rectangle 12918" width="8.446" height="8.446" transform="translate(318.911 135.556) rotate(180)" fill="#fff"/>
    <rect id="Rectangle_12919" data-name="Rectangle 12919" width="8.446" height="8.446" transform="translate(318.911 149.07) rotate(180)" fill="#fff"/>
    <rect id="Rectangle_12920" data-name="Rectangle 12920" width="8.446" height="8.446" transform="translate(318.911 162.583) rotate(180)" fill="#fff"/>
    <rect id="Rectangle_12921" data-name="Rectangle 12921" width="8.446" height="8.446" transform="translate(318.911 176.097) rotate(180)" fill="#fff"/>
    <rect id="Rectangle_12922" data-name="Rectangle 12922" width="375" height="0.845" transform="translate(0 193.536)" fill="#3f3d56"/>
  </g>
</svg>
